<svg width="400" height="400" viewBox="0 0 400 400" xmlns="http://www.w3.org/2000/svg"><circle cx="350" cy="50" r="10" fill="#161a79"/><circle cx="330" cy="70" r="10" fill="#161a79"/><circle cx="370" cy="70" r="10" fill="#161a79"/><circle cx="310" cy="90" r="10" fill="#161a79"/><circle cx="390" cy="90" r="10" fill="#161a79"/><circle cx="290" cy="110" r="10" fill="#161a79"/><circle cx="370" cy="110" r="10" fill="#161a79"/><circle cx="270" cy="130" r="10" fill="#161a79"/><circle cx="350" cy="130" r="10" fill="#161a79"/><circle cx="250" cy="150" r="10" fill="#161a79"/><circle cx="330" cy="150" r="10" fill="#161a79"/><circle cx="230" cy="170" r="10" fill="#161a79"/><circle cx="310" cy="170" r="10" fill="#161a79"/><circle cx="210" cy="190" r="10" fill="#161a79"/><circle cx="290" cy="190" r="10" fill="#161a79"/><circle cx="50" cy="210" r="10" fill="#161a79"/><circle cx="190" cy="210" r="10" fill="#161a79"/><circle cx="270" cy="210" r="10" fill="#161a79"/><circle cx="30" cy="230" r="10" fill="#161a79"/><circle cx="70" cy="230" r="10" fill="#161a79"/><circle cx="170" cy="230" r="10" fill="#161a79"/><circle cx="250" cy="230" r="10" fill="#161a79"/><circle cx="10" cy="250" r="10" fill="#161a79"/><circle cx="90" cy="250" r="10" fill="#161a79"/><circle cx="150" cy="250" r="10" fill="#161a79"/><circle cx="230" cy="250" r="10" fill="#161a79"/><circle cx="30" cy="270" r="10" fill="#161a79"/><circle cx="110" cy="270" r="10" fill="#161a79"/><circle cx="130" cy="270" r="10" fill="#161a79"/><circle cx="210" cy="270" r="10" fill="#161a79"/><circle cx="50" cy="290" r="10" fill="#161a79"/><circle cx="190" cy="290" r="10" fill="#161a79"/><circle cx="70" cy="310" r="10" fill="#161a79"/><circle cx="170" cy="310" r="10" fill="#161a79"/><circle cx="90" cy="330" r="10" fill="#161a79"/><circle cx="150" cy="330" r="10" fill="#161a79"/><circle cx="110" cy="350" r="10" fill="#161a79"/><circle cx="130" cy="350" r="10" fill="#161a79"/></svg>