<svg width="400" height="400" viewBox="0 0 400 400" xmlns="http://www.w3.org/2000/svg"><circle cx="170" cy="30" r="10" fill="#161a79"/><circle cx="190" cy="30" r="10" fill="#161a79"/><circle cx="210" cy="30" r="10" fill="#161a79"/><circle cx="230" cy="30" r="10" fill="#161a79"/><circle cx="250" cy="30" r="10" fill="#161a79"/><circle cx="150" cy="50" r="10" fill="#161a79"/><circle cx="270" cy="50" r="10" fill="#161a79"/><circle cx="130" cy="70" r="10" fill="#161a79"/><circle cx="190" cy="70" r="10" fill="#161a79"/><circle cx="210" cy="70" r="10" fill="#161a79"/><circle cx="230" cy="70" r="10" fill="#161a79"/><circle cx="290" cy="70" r="10" fill="#161a79"/><circle cx="110" cy="90" r="10" fill="#161a79"/><circle cx="170" cy="90" r="10" fill="#161a79"/><circle cx="250" cy="90" r="10" fill="#161a79"/><circle cx="310" cy="90" r="10" fill="#161a79"/><circle cx="110" cy="110" r="10" fill="#161a79"/><circle cx="150" cy="110" r="10" fill="#161a79"/><circle cx="270" cy="110" r="10" fill="#161a79"/><circle cx="310" cy="110" r="10" fill="#161a79"/><circle cx="110" cy="130" r="10" fill="#161a79"/><circle cx="150" cy="130" r="10" fill="#161a79"/><circle cx="270" cy="130" r="10" fill="#161a79"/><circle cx="310" cy="130" r="10" fill="#161a79"/><circle cx="110" cy="150" r="10" fill="#161a79"/><circle cx="150" cy="150" r="10" fill="#161a79"/><circle cx="270" cy="150" r="10" fill="#161a79"/><circle cx="310" cy="150" r="10" fill="#161a79"/><circle cx="50" cy="170" r="10" fill="#161a79"/><circle cx="70" cy="170" r="10" fill="#161a79"/><circle cx="90" cy="170" r="10" fill="#161a79"/><circle cx="110" cy="170" r="10" fill="#161a79"/><circle cx="130" cy="170" r="10" fill="#161a79"/><circle cx="150" cy="170" r="10" fill="#161a79"/><circle cx="170" cy="170" r="10" fill="#161a79"/><circle cx="190" cy="170" r="10" fill="#161a79"/><circle cx="210" cy="170" r="10" fill="#161a79"/><circle cx="230" cy="170" r="10" fill="#161a79"/><circle cx="250" cy="170" r="10" fill="#161a79"/><circle cx="270" cy="170" r="10" fill="#161a79"/><circle cx="290" cy="170" r="10" fill="#161a79"/><circle cx="310" cy="170" r="10" fill="#161a79"/><circle cx="330" cy="170" r="10" fill="#161a79"/><circle cx="350" cy="170" r="10" fill="#161a79"/><circle cx="370" cy="170" r="10" fill="#161a79"/><circle cx="50" cy="190" r="10" fill="#161a79"/><circle cx="370" cy="190" r="10" fill="#161a79"/><circle cx="50" cy="210" r="10" fill="#161a79"/><circle cx="190" cy="210" r="10" fill="#161a79"/><circle cx="210" cy="210" r="10" fill="#161a79"/><circle cx="230" cy="210" r="10" fill="#161a79"/><circle cx="370" cy="210" r="10" fill="#161a79"/><circle cx="50" cy="230" r="10" fill="#161a79"/><circle cx="170" cy="230" r="10" fill="#161a79"/><circle cx="250" cy="230" r="10" fill="#161a79"/><circle cx="370" cy="230" r="10" fill="#161a79"/><circle cx="50" cy="250" r="10" fill="#161a79"/><circle cx="170" cy="250" r="10" fill="#161a79"/><circle cx="250" cy="250" r="10" fill="#161a79"/><circle cx="370" cy="250" r="10" fill="#161a79"/><circle cx="50" cy="270" r="10" fill="#161a79"/><circle cx="190" cy="270" r="10" fill="#161a79"/><circle cx="230" cy="270" r="10" fill="#161a79"/><circle cx="370" cy="270" r="10" fill="#161a79"/><circle cx="50" cy="290" r="10" fill="#161a79"/><circle cx="190" cy="290" r="10" fill="#161a79"/><circle cx="230" cy="290" r="10" fill="#161a79"/><circle cx="370" cy="290" r="10" fill="#161a79"/><circle cx="50" cy="310" r="10" fill="#161a79"/><circle cx="190" cy="310" r="10" fill="#161a79"/><circle cx="230" cy="310" r="10" fill="#161a79"/><circle cx="370" cy="310" r="10" fill="#161a79"/><circle cx="50" cy="330" r="10" fill="#161a79"/><circle cx="190" cy="330" r="10" fill="#161a79"/><circle cx="230" cy="330" r="10" fill="#161a79"/><circle cx="370" cy="330" r="10" fill="#161a79"/><circle cx="50" cy="350" r="10" fill="#161a79"/><circle cx="210" cy="350" r="10" fill="#161a79"/><circle cx="370" cy="350" r="10" fill="#161a79"/><circle cx="50" cy="370" r="10" fill="#161a79"/><circle cx="370" cy="370" r="10" fill="#161a79"/><circle cx="50" cy="390" r="10" fill="#161a79"/><circle cx="70" cy="390" r="10" fill="#161a79"/><circle cx="90" cy="390" r="10" fill="#161a79"/><circle cx="110" cy="390" r="10" fill="#161a79"/><circle cx="130" cy="390" r="10" fill="#161a79"/><circle cx="150" cy="390" r="10" fill="#161a79"/><circle cx="170" cy="390" r="10" fill="#161a79"/><circle cx="190" cy="390" r="10" fill="#161a79"/><circle cx="210" cy="390" r="10" fill="#161a79"/><circle cx="230" cy="390" r="10" fill="#161a79"/><circle cx="250" cy="390" r="10" fill="#161a79"/><circle cx="270" cy="390" r="10" fill="#161a79"/><circle cx="290" cy="390" r="10" fill="#161a79"/><circle cx="310" cy="390" r="10" fill="#161a79"/><circle cx="330" cy="390" r="10" fill="#161a79"/><circle cx="350" cy="390" r="10" fill="#161a79"/><circle cx="370" cy="390" r="10" fill="#161a79"/></svg>