<svg width="167" height="167" viewBox="0 0 167 167" fill="none" xmlns="http://www.w3.org/2000/svg">
<path d="M146.904 63.5528C146.904 65.7466 145.124 67.5232 142.932 67.5232C140.738 67.5232 138.961 65.7444 138.961 63.5528C138.961 61.3591 140.74 59.5825 142.932 59.5825C145.127 59.5825 146.904 61.3613 146.904 63.5528Z" fill="#171A74"/>
<path d="M146.896 71.4962C146.896 73.6899 145.117 75.4665 142.924 75.4665C140.73 75.4665 138.953 73.6878 138.953 71.4962C138.953 69.3025 140.732 67.5259 142.924 67.5259C145.119 67.5259 146.896 69.3046 146.896 71.4962Z" fill="#171A74"/>
<path d="M146.904 79.4386C146.904 81.6323 145.124 83.4089 142.932 83.4089C140.738 83.4089 138.961 81.6301 138.961 79.4386C138.961 77.2449 140.74 75.4683 142.932 75.4683C145.127 75.4683 146.904 77.247 146.904 79.4386Z" fill="#171A74"/>
<path d="M146.896 87.3819C146.896 89.5757 145.117 91.3523 142.924 91.3523C140.73 91.3523 138.953 89.5735 138.953 87.3819C138.953 85.1882 140.732 83.4116 142.924 83.4116C145.119 83.4116 146.896 85.1904 146.896 87.3819Z" fill="#171A74"/>
<path d="M146.896 95.3243C146.896 97.518 145.117 99.2946 142.924 99.2946C140.73 99.2946 138.953 97.5159 138.953 95.3243C138.953 93.1306 140.732 91.354 142.924 91.354C145.119 91.354 146.896 93.1328 146.896 95.3243Z" fill="#171A74"/>
<path d="M146.904 103.265C146.904 105.459 145.124 107.236 142.932 107.236C140.738 107.236 138.961 105.457 138.961 103.265C138.961 101.072 140.74 99.2949 142.932 99.2949C145.127 99.2949 146.904 101.074 146.904 103.265Z" fill="#171A74"/>
<path d="M146.896 111.208C146.896 113.401 145.117 115.178 142.924 115.178C140.73 115.178 138.953 113.399 138.953 111.208C138.953 109.014 140.732 107.237 142.924 107.237C145.119 107.237 146.896 109.016 146.896 111.208Z" fill="#171A74"/>
<path d="M146.904 119.151C146.904 121.345 145.124 123.122 142.932 123.122C140.738 123.122 138.961 121.343 138.961 119.151C138.961 116.958 140.74 115.181 142.932 115.181C145.127 115.181 146.904 116.96 146.904 119.151Z" fill="#171A74"/>
<path d="M146.896 127.094C146.896 129.288 145.117 131.064 142.924 131.064C140.73 131.064 138.953 129.285 138.953 127.094C138.953 124.9 140.732 123.124 142.924 123.124C145.119 123.124 146.896 124.902 146.896 127.094Z" fill="#171A74"/>
<path d="M146.904 135.036C146.904 137.229 145.124 139.006 142.932 139.006C140.738 139.006 138.961 137.227 138.961 135.036C138.961 132.842 140.74 131.065 142.932 131.065C145.127 131.065 146.904 132.844 146.904 135.036Z" fill="#171A74"/>
<path d="M146.896 142.979C146.896 145.173 145.117 146.949 142.924 146.949C140.73 146.949 138.953 145.171 138.953 142.979C138.953 140.785 140.732 139.009 142.924 139.009C145.119 139.009 146.896 140.788 146.896 142.979Z" fill="#171A74"/>
<path d="M131.247 103.268C131.247 105.461 129.468 107.238 127.276 107.238C125.082 107.238 123.305 105.459 123.305 103.268C123.305 101.074 125.084 99.2974 127.276 99.2974C129.47 99.2974 131.247 101.076 131.247 103.268Z" fill="#171A74"/>
<path d="M123.306 95.3243C123.306 97.518 121.527 99.2946 119.335 99.2946C117.14 99.2946 115.363 97.5159 115.363 95.3243C115.363 93.1306 117.142 91.354 119.335 91.354C121.529 91.354 123.306 93.1328 123.306 95.3243Z" fill="#171A74"/>
<path d="M115.173 95.3243C115.173 97.518 113.394 99.2946 111.202 99.2946C109.008 99.2946 107.23 97.5159 107.23 95.3243C107.23 93.1306 109.01 91.354 111.202 91.354C113.396 91.354 115.173 93.1328 115.173 95.3243Z" fill="#171A74"/>
<path d="M107.407 87.3785C107.407 89.5722 105.628 91.3488 103.436 91.3488C101.242 91.3488 99.4648 89.5701 99.4648 87.3785C99.4648 85.1848 101.244 83.4082 103.436 83.4082C105.63 83.4082 107.407 85.187 107.407 87.3785Z" fill="#171A74"/>
<path d="M131.247 111.208C131.247 113.401 129.468 115.178 127.276 115.178C125.082 115.178 123.305 113.399 123.305 111.208C123.305 109.014 125.084 107.237 127.276 107.237C129.47 107.237 131.247 109.016 131.247 111.208Z" fill="#171A74"/>
<path d="M131.247 119.152C131.247 121.346 129.468 123.123 127.276 123.123C125.082 123.123 123.305 121.344 123.305 119.152C123.305 116.959 125.084 115.182 127.276 115.182C129.47 115.182 131.247 116.961 131.247 119.152Z" fill="#171A74"/>
<path d="M131.247 127.094C131.247 129.288 129.468 131.064 127.276 131.064C125.082 131.064 123.305 129.285 123.305 127.094C123.305 124.9 125.084 123.124 127.276 123.124C129.47 123.124 131.247 124.902 131.247 127.094Z" fill="#171A74"/>
<path d="M131.247 135.036C131.247 137.229 129.468 139.006 127.276 139.006C125.082 139.006 123.305 137.227 123.305 135.036C123.305 132.842 125.084 131.065 127.276 131.065C129.47 131.065 131.247 132.844 131.247 135.036Z" fill="#171A74"/>
<path d="M131.247 142.979C131.247 145.173 129.468 146.949 127.276 146.949C125.082 146.949 123.305 145.171 123.305 142.979C123.305 140.785 125.084 139.009 127.276 139.009C129.47 139.009 131.247 140.788 131.247 142.979Z" fill="#171A74"/>
<path d="M115.353 39.7272C115.353 41.9209 113.574 43.6975 111.381 43.6975C109.187 43.6975 107.41 41.9187 107.41 39.7272C107.41 37.5334 109.189 35.7568 111.381 35.7568C113.576 35.7568 115.353 37.5356 115.353 39.7272Z" fill="#171A74"/>
<path d="M115.353 47.67C115.353 49.8638 113.574 51.6403 111.381 51.6403C109.187 51.6403 107.41 49.8616 107.41 47.67C107.41 45.4763 109.189 43.6997 111.381 43.6997C113.576 43.6997 115.353 45.4785 115.353 47.67Z" fill="#171A74"/>
<path d="M115.353 55.6105C115.353 57.8042 113.574 59.5808 111.381 59.5808C109.187 59.5808 107.41 57.802 107.41 55.6105C107.41 53.4167 109.189 51.6401 111.381 51.6401C113.576 51.6401 115.353 53.4189 115.353 55.6105Z" fill="#171A74"/>
<path d="M115.353 63.5528C115.353 65.7466 113.574 67.5232 111.381 67.5232C109.187 67.5232 107.41 65.7444 107.41 63.5528C107.41 61.3591 109.189 59.5825 111.381 59.5825C113.576 59.5825 115.353 61.3613 115.353 63.5528Z" fill="#171A74"/>
<path d="M115.353 71.4962C115.353 73.6899 113.574 75.4665 111.381 75.4665C109.187 75.4665 107.41 73.6878 107.41 71.4962C107.41 69.3025 109.189 67.5259 111.381 67.5259C113.576 67.5259 115.353 69.3046 115.353 71.4962Z" fill="#171A74"/>
<path d="M115.353 79.4386C115.353 81.6323 113.574 83.4089 111.381 83.4089C109.187 83.4089 107.41 81.6301 107.41 79.4386C107.41 77.2449 109.189 75.4683 111.381 75.4683C113.576 75.4683 115.353 77.247 115.353 79.4386Z" fill="#171A74"/>
<path d="M59.7434 39.7272C59.7434 41.9209 57.9642 43.6975 55.7721 43.6975C53.5778 43.6975 51.8008 41.9187 51.8008 39.7272C51.8008 37.5334 53.58 35.7568 55.7721 35.7568C57.9664 35.7568 59.7434 37.5356 59.7434 39.7272Z" fill="#171A74"/>
<path d="M59.7512 47.67C59.7512 49.8638 57.972 51.6403 55.7799 51.6403C53.5856 51.6403 51.8086 49.8616 51.8086 47.67C51.8086 45.4763 53.5878 43.6997 55.7799 43.6997C57.9742 43.6997 59.7512 45.4785 59.7512 47.67Z" fill="#171A74"/>
<path d="M59.7434 55.6105C59.7434 57.8042 57.9642 59.5808 55.7721 59.5808C53.5778 59.5808 51.8008 57.802 51.8008 55.6105C51.8008 53.4167 53.58 51.6401 55.7721 51.6401C57.9664 51.6401 59.7434 53.4189 59.7434 55.6105Z" fill="#171A74"/>
<path d="M59.7512 63.5528C59.7512 65.7466 57.972 67.5232 55.7799 67.5232C53.5856 67.5232 51.8086 65.7444 51.8086 63.5528C51.8086 61.3591 53.5878 59.5825 55.7799 59.5825C57.9742 59.5825 59.7512 61.3613 59.7512 63.5528Z" fill="#171A74"/>
<path d="M59.7434 71.4962C59.7434 73.6899 57.9642 75.4665 55.7721 75.4665C53.5778 75.4665 51.8008 73.6878 51.8008 71.4962C51.8008 69.3025 53.58 67.5259 55.7721 67.5259C57.9664 67.5259 59.7434 69.3046 59.7434 71.4962Z" fill="#171A74"/>
<path d="M59.7434 79.4386C59.7434 81.6323 57.9642 83.4089 55.7721 83.4089C53.5778 83.4089 51.8008 81.6301 51.8008 79.4386C51.8008 77.2449 53.58 75.4683 55.7721 75.4683C57.9664 75.4683 59.7434 77.247 59.7434 79.4386Z" fill="#171A74"/>
<path d="M43.8567 103.265C43.8567 105.459 42.0775 107.236 39.8854 107.236C37.6911 107.236 35.9141 105.457 35.9141 103.265C35.9141 101.072 37.6933 99.2949 39.8854 99.2949C42.0797 99.2949 43.8567 101.074 43.8567 103.265Z" fill="#171A74"/>
<path d="M51.7981 95.3224C51.7981 97.5161 50.0189 99.2927 47.8268 99.2927C45.6325 99.2927 43.8555 97.5139 43.8555 95.3224C43.8555 93.1286 45.6347 91.3521 47.8268 91.3521C50.0211 91.3521 51.7981 93.1308 51.7981 95.3224Z" fill="#171A74"/>
<path d="M59.7434 95.3243C59.7434 97.518 57.9642 99.2946 55.7721 99.2946C53.5778 99.2946 51.8008 97.5159 51.8008 95.3243C51.8008 93.1306 53.58 91.354 55.7721 91.354C57.9664 91.354 59.7434 93.1328 59.7434 95.3243Z" fill="#171A74"/>
<path d="M67.6848 87.3785C67.6848 89.5722 65.9056 91.3488 63.7135 91.3488C61.5192 91.3488 59.7422 89.5701 59.7422 87.3785C59.7422 85.1848 61.5214 83.4082 63.7135 83.4082C65.9078 83.4082 67.6848 85.187 67.6848 87.3785Z" fill="#171A74"/>
<path d="M43.8567 111.208C43.8567 113.401 42.0775 115.178 39.8854 115.178C37.6911 115.178 35.9141 113.399 35.9141 111.208C35.9141 109.014 37.6933 107.237 39.8854 107.237C42.0797 107.237 43.8567 109.016 43.8567 111.208Z" fill="#171A74"/>
<path d="M43.8567 119.151C43.8567 121.345 42.0775 123.122 39.8854 123.122C37.6911 123.122 35.9141 121.343 35.9141 119.151C35.9141 116.958 37.6933 115.181 39.8854 115.181C42.0797 115.181 43.8567 116.96 43.8567 119.151Z" fill="#171A74"/>
<path d="M43.8567 127.094C43.8567 129.288 42.0775 131.064 39.8854 131.064C37.6911 131.064 35.9141 129.285 35.9141 127.094C35.9141 124.9 37.6933 123.124 39.8854 123.124C42.0797 123.124 43.8567 124.902 43.8567 127.094Z" fill="#171A74"/>
<path d="M43.8567 135.036C43.8567 137.229 42.0775 139.006 39.8854 139.006C37.6911 139.006 35.9141 137.227 35.9141 135.036C35.9141 132.842 37.6933 131.065 39.8854 131.065C42.0797 131.065 43.8567 132.844 43.8567 135.036Z" fill="#171A74"/>
<path d="M43.8567 142.979C43.8567 145.173 42.0775 146.949 39.8854 146.949C37.6911 146.949 35.9141 145.171 35.9141 142.979C35.9141 140.785 37.6933 139.009 39.8854 139.009C42.0797 139.009 43.8567 140.788 43.8567 142.979Z" fill="#171A74"/>
<path d="M27.7825 39.7272C27.7825 41.9209 26.0033 43.6975 23.8112 43.6975C21.6169 43.6975 19.8398 41.9187 19.8398 39.7272C19.8398 37.5334 21.619 35.7568 23.8112 35.7568C26.0054 35.7568 27.7825 37.5356 27.7825 39.7272Z" fill="#171A74"/>
<path d="M27.7825 31.7833C27.7825 33.977 26.0033 35.7536 23.8112 35.7536C21.6169 35.7536 19.8398 33.9749 19.8398 31.7833C19.8398 29.5896 21.619 27.813 23.8112 27.813C26.0054 27.813 27.7825 29.5917 27.7825 31.7833Z" fill="#171A74"/>
<path d="M27.7825 23.8419C27.7825 26.0356 26.0033 27.8122 23.8112 27.8122C21.6169 27.8122 19.8398 26.0335 19.8398 23.8419C19.8398 21.6482 21.619 19.8716 23.8112 19.8716C26.0054 19.8716 27.7825 21.6503 27.7825 23.8419Z" fill="#171A74"/>
<path d="M27.7825 47.67C27.7825 49.8638 26.0033 51.6403 23.8112 51.6403C21.6169 51.6403 19.8398 49.8616 19.8398 47.67C19.8398 45.4763 21.619 43.6997 23.8112 43.6997C26.0054 43.6997 27.7825 45.4785 27.7825 47.67Z" fill="#171A74"/>
<path d="M27.7825 55.6105C27.7825 57.8042 26.0033 59.5808 23.8112 59.5808C21.6169 59.5808 19.8398 57.802 19.8398 55.6105C19.8398 53.4167 21.619 51.6401 23.8112 51.6401C26.0054 51.6401 27.7825 53.4189 27.7825 55.6105Z" fill="#171A74"/>
<path d="M146.896 39.7272C146.896 41.9209 145.117 43.6975 142.924 43.6975C140.73 43.6975 138.953 41.9187 138.953 39.7272C138.953 37.5334 140.732 35.7568 142.924 35.7568C145.119 35.7568 146.896 37.5356 146.896 39.7272Z" fill="#171A74"/>
<path d="M146.896 31.7833C146.896 33.977 145.117 35.7536 142.924 35.7536C140.73 35.7536 138.953 33.9749 138.953 31.7833C138.953 29.5896 140.732 27.813 142.924 27.813C145.119 27.813 146.896 29.5917 146.896 31.7833Z" fill="#171A74"/>
<path d="M146.904 23.8419C146.904 26.0356 145.124 27.8122 142.932 27.8122C140.738 27.8122 138.961 26.0335 138.961 23.8419C138.961 21.6482 140.74 19.8716 142.932 19.8716C145.127 19.8716 146.904 21.6503 146.904 23.8419Z" fill="#171A74"/>
<path d="M146.904 47.6676C146.904 49.8613 145.124 51.6379 142.932 51.6379C140.738 51.6379 138.961 49.8592 138.961 47.6676C138.961 45.4739 140.74 43.6973 142.932 43.6973C145.127 43.6973 146.904 45.476 146.904 47.6676Z" fill="#171A74"/>
<path d="M146.896 55.6105C146.896 57.8042 145.117 59.5808 142.924 59.5808C140.73 59.5808 138.953 57.802 138.953 55.6105C138.953 53.4167 140.732 51.6401 142.924 51.6401C145.119 51.6401 146.896 53.4189 146.896 55.6105Z" fill="#171A74"/>
<path d="M27.7825 63.5528C27.7825 65.7466 26.0033 67.5232 23.8112 67.5232C21.6169 67.5232 19.8398 65.7444 19.8398 63.5528C19.8398 61.3591 21.619 59.5825 23.8112 59.5825C26.0054 59.5825 27.7825 61.3613 27.7825 63.5528Z" fill="#171A74"/>
<path d="M27.7825 71.4962C27.7825 73.6899 26.0033 75.4665 23.8112 75.4665C21.6169 75.4665 19.8398 73.6878 19.8398 71.4962C19.8398 69.3025 21.619 67.5259 23.8112 67.5259C26.0054 67.5259 27.7825 69.3046 27.7825 71.4962Z" fill="#171A74"/>
<path d="M27.7825 79.4386C27.7825 81.6323 26.0033 83.4089 23.8112 83.4089C21.6169 83.4089 19.8398 81.6301 19.8398 79.4386C19.8398 77.2449 21.619 75.4683 23.8112 75.4683C26.0054 75.4683 27.7825 77.247 27.7825 79.4386Z" fill="#171A74"/>
<path d="M27.7825 87.3819C27.7825 89.5757 26.0033 91.3523 23.8112 91.3523C21.6169 91.3523 19.8398 89.5735 19.8398 87.3819C19.8398 85.1882 21.619 83.4116 23.8112 83.4116C26.0054 83.4116 27.7825 85.1904 27.7825 87.3819Z" fill="#171A74"/>
<path d="M27.7825 95.3243C27.7825 97.518 26.0033 99.2946 23.8112 99.2946C21.6169 99.2946 19.8398 97.5159 19.8398 95.3243C19.8398 93.1306 21.619 91.354 23.8112 91.354C26.0054 91.354 27.7825 93.1328 27.7825 95.3243Z" fill="#171A74"/>
<path d="M27.7825 103.268C27.7825 105.461 26.0033 107.238 23.8112 107.238C21.6169 107.238 19.8398 105.459 19.8398 103.268C19.8398 101.074 21.619 99.2974 23.8112 99.2974C26.0054 99.2974 27.7825 101.076 27.7825 103.268Z" fill="#171A74"/>
<path d="M27.7825 111.208C27.7825 113.401 26.0033 115.178 23.8112 115.178C21.6169 115.178 19.8398 113.399 19.8398 111.208C19.8398 109.014 21.619 107.237 23.8112 107.237C26.0054 107.237 27.7825 109.016 27.7825 111.208Z" fill="#171A74"/>
<path d="M27.7825 119.152C27.7825 121.346 26.0033 123.123 23.8112 123.123C21.6169 123.123 19.8398 121.344 19.8398 119.152C19.8398 116.959 21.619 115.182 23.8112 115.182C26.0054 115.182 27.7825 116.961 27.7825 119.152Z" fill="#171A74"/>
<path d="M27.7825 127.094C27.7825 129.288 26.0033 131.064 23.8112 131.064C21.6169 131.064 19.8398 129.285 19.8398 127.094C19.8398 124.9 21.619 123.124 23.8112 123.124C26.0054 123.124 27.7825 124.902 27.7825 127.094Z" fill="#171A74"/>
<path d="M27.7825 135.036C27.7825 137.229 26.0033 139.006 23.8112 139.006C21.6169 139.006 19.8398 137.227 19.8398 135.036C19.8398 132.842 21.619 131.065 23.8112 131.065C26.0054 131.065 27.7825 132.844 27.7825 135.036Z" fill="#171A74"/>
<path d="M27.7825 142.979C27.7825 145.173 26.0033 146.949 23.8112 146.949C21.6169 146.949 19.8398 145.171 19.8398 142.979C19.8398 140.785 21.619 139.009 23.8112 139.009C26.0054 139.009 27.7825 140.788 27.7825 142.979Z" fill="#171A74"/>
<path d="M31.7526 146.95C33.9469 146.95 35.7239 148.728 35.7239 150.92C35.7239 153.114 33.9447 154.89 31.7526 154.89C29.5583 154.89 27.7812 153.112 27.7812 150.92C27.7812 148.726 29.5605 146.95 31.7526 146.95Z" fill="#171A74"/>
<path d="M39.7018 146.95C41.8961 146.95 43.6731 148.728 43.6731 150.92C43.6731 153.114 41.8939 154.89 39.7018 154.89C37.5075 154.89 35.7305 153.112 35.7305 150.92C35.7305 148.726 37.5097 146.95 39.7018 146.95Z" fill="#171A74"/>
<path d="M47.6471 146.95C49.8414 146.95 51.6184 148.728 51.6184 150.92C51.6184 153.114 49.8392 154.89 47.6471 154.89C45.4528 154.89 43.6758 153.112 43.6758 150.92C43.6758 148.726 45.455 146.95 47.6471 146.95Z" fill="#171A74"/>
<path d="M55.5885 146.95C57.7828 146.95 59.5598 148.728 59.5598 150.92C59.5598 153.114 57.7806 154.89 55.5885 154.89C53.3942 154.89 51.6172 153.112 51.6172 150.92C51.6172 148.726 53.3964 146.95 55.5885 146.95Z" fill="#171A74"/>
<path d="M63.5377 146.95C65.732 146.95 67.5091 148.728 67.5091 150.92C67.5091 153.114 65.7298 154.89 63.5377 154.89C61.3434 154.89 59.5664 153.112 59.5664 150.92C59.5664 148.726 61.3456 146.95 63.5377 146.95Z" fill="#171A74"/>
<path d="M71.483 146.95C73.6773 146.95 75.4544 148.728 75.4544 150.92C75.4544 153.114 73.6752 154.89 71.483 154.89C69.2888 154.89 67.5117 153.112 67.5117 150.92C67.5117 148.726 69.2909 146.95 71.483 146.95Z" fill="#171A74"/>
<path d="M79.4244 146.95C81.6187 146.95 83.3958 148.728 83.3958 150.92C83.3958 153.114 81.6166 154.89 79.4244 154.89C77.2302 154.89 75.4531 153.112 75.4531 150.92C75.4531 148.726 77.2323 146.95 79.4244 146.95Z" fill="#171A74"/>
<path d="M87.3659 146.95C89.5602 146.95 91.3372 148.728 91.3372 150.92C91.3372 153.114 89.558 154.89 87.3659 154.89C85.1716 154.89 83.3945 153.112 83.3945 150.92C83.3945 148.726 85.1738 146.95 87.3659 146.95Z" fill="#171A74"/>
<path d="M95.3151 146.95C97.5094 146.95 99.2864 148.728 99.2864 150.92C99.2864 153.114 97.5072 154.89 95.3151 154.89C93.1208 154.89 91.3438 153.112 91.3438 150.92C91.3438 148.726 93.123 146.95 95.3151 146.95Z" fill="#171A74"/>
<path d="M103.257 146.95C105.451 146.95 107.228 148.728 107.228 150.92C107.228 153.114 105.449 154.89 103.257 154.89C101.062 154.89 99.2852 153.112 99.2852 150.92C99.2852 148.726 101.064 146.95 103.257 146.95Z" fill="#171A74"/>
<path d="M111.202 146.95C113.396 146.95 115.173 148.728 115.173 150.92C115.173 153.114 113.394 154.89 111.202 154.89C109.008 154.89 107.23 153.112 107.23 150.92C107.23 148.726 109.01 146.95 111.202 146.95Z" fill="#171A74"/>
<path d="M119.143 146.95C121.338 146.95 123.115 148.728 123.115 150.92C123.115 153.114 121.335 154.89 119.143 154.89C116.949 154.89 115.172 153.112 115.172 150.92C115.172 148.726 116.951 146.95 119.143 146.95Z" fill="#171A74"/>
<path d="M31.7526 146.95C33.9469 146.95 35.7239 148.728 35.7239 150.92C35.7239 153.114 33.9447 154.89 31.7526 154.89C29.5583 154.89 27.7812 153.112 27.7812 150.92C27.7812 148.726 29.5605 146.95 31.7526 146.95Z" fill="#171A74"/>
<path d="M39.7018 146.95C41.8961 146.95 43.6731 148.728 43.6731 150.92C43.6731 153.114 41.8939 154.89 39.7018 154.89C37.5075 154.89 35.7305 153.112 35.7305 150.92C35.7305 148.726 37.5097 146.95 39.7018 146.95Z" fill="#171A74"/>
<path d="M47.6471 146.95C49.8414 146.95 51.6184 148.728 51.6184 150.92C51.6184 153.114 49.8392 154.89 47.6471 154.89C45.4528 154.89 43.6758 153.112 43.6758 150.92C43.6758 148.726 45.455 146.95 47.6471 146.95Z" fill="#171A74"/>
<path d="M55.5885 146.95C57.7828 146.95 59.5598 148.728 59.5598 150.92C59.5598 153.114 57.7806 154.89 55.5885 154.89C53.3942 154.89 51.6172 153.112 51.6172 150.92C51.6172 148.726 53.3964 146.95 55.5885 146.95Z" fill="#171A74"/>
<path d="M71.483 146.95C73.6773 146.95 75.4544 148.728 75.4544 150.92C75.4544 153.114 73.6752 154.89 71.483 154.89C69.2888 154.89 67.5117 153.112 67.5117 150.92C67.5117 148.726 69.2909 146.95 71.483 146.95Z" fill="#171A74"/>
<path d="M79.4244 146.95C81.6187 146.95 83.3958 148.728 83.3958 150.92C83.3958 153.114 81.6166 154.89 79.4244 154.89C77.2302 154.89 75.4531 153.112 75.4531 150.92C75.4531 148.726 77.2323 146.95 79.4244 146.95Z" fill="#171A74"/>
<path d="M87.3659 146.95C89.5602 146.95 91.3372 148.728 91.3372 150.92C91.3372 153.114 89.558 154.89 87.3659 154.89C85.1716 154.89 83.3945 153.112 83.3945 150.92C83.3945 148.726 85.1738 146.95 87.3659 146.95Z" fill="#171A74"/>
<path d="M95.3151 146.95C97.5094 146.95 99.2864 148.728 99.2864 150.92C99.2864 153.114 97.5072 154.89 95.3151 154.89C93.1208 154.89 91.3438 153.112 91.3438 150.92C91.3438 148.726 93.123 146.95 95.3151 146.95Z" fill="#171A74"/>
<path d="M103.257 146.95C105.451 146.95 107.228 148.728 107.228 150.92C107.228 153.114 105.449 154.89 103.257 154.89C101.062 154.89 99.2852 153.112 99.2852 150.92C99.2852 148.726 101.064 146.95 103.257 146.95Z" fill="#171A74"/>
<path d="M63.5377 27.813C65.732 27.813 67.5091 29.5917 67.5091 31.7833C67.5091 33.977 65.7298 35.7536 63.5377 35.7536C61.3434 35.7536 59.5664 33.9749 59.5664 31.7833C59.5664 29.5896 61.3456 27.813 63.5377 27.813Z" fill="#171A74"/>
<path d="M71.483 27.813C73.6773 27.813 75.4544 29.5917 75.4544 31.7833C75.4544 33.977 73.6752 35.7536 71.483 35.7536C69.2888 35.7536 67.5117 33.9749 67.5117 31.7833C67.5117 29.5896 69.2909 27.813 71.483 27.813Z" fill="#171A74"/>
<path d="M79.4244 27.813C81.6187 27.813 83.3958 29.5917 83.3958 31.7833C83.3958 33.977 81.6166 35.7536 79.4244 35.7536C77.2302 35.7536 75.4531 33.9749 75.4531 31.7833C75.4531 29.5896 77.2323 27.813 79.4244 27.813Z" fill="#171A74"/>
<path d="M87.3659 27.813C89.5602 27.813 91.3372 29.5917 91.3372 31.7833C91.3372 33.977 89.558 35.7536 87.3659 35.7536C85.1716 35.7536 83.3945 33.9749 83.3945 31.7833C83.3945 29.5896 85.1738 27.813 87.3659 27.813Z" fill="#171A74"/>
<path d="M95.3151 27.813C97.5094 27.813 99.2864 29.5917 99.2864 31.7833C99.2864 33.977 97.5072 35.7536 95.3151 35.7536C93.1208 35.7536 91.3438 33.9749 91.3438 31.7833C91.3438 29.5896 93.123 27.813 95.3151 27.813Z" fill="#171A74"/>
<path d="M103.257 27.813C105.451 27.813 107.228 29.5917 107.228 31.7833C107.228 33.977 105.449 35.7536 103.257 35.7536C101.062 35.7536 99.2852 33.9749 99.2852 31.7833C99.2852 29.5896 101.064 27.813 103.257 27.813Z" fill="#171A74"/>
<path d="M63.5377 27.813C65.732 27.813 67.5091 29.5917 67.5091 31.7833C67.5091 33.977 65.7298 35.7536 63.5377 35.7536C61.3434 35.7536 59.5664 33.9749 59.5664 31.7833C59.5664 29.5896 61.3456 27.813 63.5377 27.813Z" fill="#171A74"/>
<path d="M71.483 27.813C73.6773 27.813 75.4544 29.5917 75.4544 31.7833C75.4544 33.977 73.6752 35.7536 71.483 35.7536C69.2888 35.7536 67.5117 33.9749 67.5117 31.7833C67.5117 29.5896 69.2909 27.813 71.483 27.813Z" fill="#171A74"/>
<path d="M79.4244 27.813C81.6187 27.813 83.3958 29.5917 83.3958 31.7833C83.3958 33.977 81.6166 35.7536 79.4244 35.7536C77.2302 35.7536 75.4531 33.9749 75.4531 31.7833C75.4531 29.5896 77.2323 27.813 79.4244 27.813Z" fill="#171A74"/>
<path d="M87.3659 27.813C89.5602 27.813 91.3372 29.5917 91.3372 31.7833C91.3372 33.977 89.558 35.7536 87.3659 35.7536C85.1716 35.7536 83.3945 33.9749 83.3945 31.7833C83.3945 29.5896 85.1738 27.813 87.3659 27.813Z" fill="#171A74"/>
<path d="M95.3151 27.813C97.5094 27.813 99.2864 29.5917 99.2864 31.7833C99.2864 33.977 97.5072 35.7536 95.3151 35.7536C93.1208 35.7536 91.3438 33.9749 91.3438 31.7833C91.3438 29.5896 93.123 27.813 95.3151 27.813Z" fill="#171A74"/>
<path d="M103.257 27.813C105.451 27.813 107.228 29.5917 107.228 31.7833C107.228 33.977 105.449 35.7536 103.257 35.7536C101.062 35.7536 99.2852 33.9749 99.2852 31.7833C99.2852 29.5896 101.064 27.813 103.257 27.813Z" fill="#171A74"/>
<path d="M111.202 146.95C113.396 146.95 115.173 148.728 115.173 150.92C115.173 153.114 113.394 154.89 111.202 154.89C109.008 154.89 107.23 153.112 107.23 150.92C107.23 148.726 109.01 146.95 111.202 146.95Z" fill="#171A74"/>
<path d="M119.143 146.95C121.338 146.95 123.115 148.728 123.115 150.92C123.115 153.114 121.335 154.89 119.143 154.89C116.949 154.89 115.172 153.112 115.172 150.92C115.172 148.726 116.951 146.95 119.143 146.95Z" fill="#171A74"/>
<path d="M127.276 146.95C129.47 146.95 131.247 148.728 131.247 150.92C131.247 153.114 129.468 154.89 127.276 154.89C125.082 154.89 123.305 153.112 123.305 150.92C123.305 148.726 125.084 146.95 127.276 146.95Z" fill="#171A74"/>
<path d="M135.217 146.95C137.412 146.95 139.189 148.728 139.189 150.92C139.189 153.114 137.41 154.89 135.217 154.89C133.023 154.89 131.246 153.112 131.246 150.92C131.246 148.726 133.025 146.95 135.217 146.95Z" fill="#171A74"/>
<path d="M127.276 146.95C129.47 146.95 131.247 148.728 131.247 150.92C131.247 153.114 129.468 154.89 127.276 154.89C125.082 154.89 123.305 153.112 123.305 150.92C123.305 148.726 125.084 146.95 127.276 146.95Z" fill="#171A74"/>
<path d="M135.217 146.95C137.412 146.95 139.189 148.728 139.189 150.92C139.189 153.114 137.41 154.89 135.217 154.89C133.023 154.89 131.246 153.112 131.246 150.92C131.246 148.726 133.025 146.95 135.217 146.95Z" fill="#171A74"/>
<path d="M31.7526 11.9287C33.9469 11.9287 35.7239 13.7075 35.7239 15.899C35.7239 18.0928 33.9447 19.8694 31.7526 19.8694C29.5583 19.8694 27.7812 18.0906 27.7812 15.899C27.7812 13.7053 29.5605 11.9287 31.7526 11.9287Z" fill="#171A74"/>
<path d="M39.7018 11.9287C41.8961 11.9287 43.6731 13.7075 43.6731 15.899C43.6731 18.0928 41.8939 19.8694 39.7018 19.8694C37.5075 19.8694 35.7305 18.0906 35.7305 15.899C35.7305 13.7053 37.5097 11.9287 39.7018 11.9287Z" fill="#171A74"/>
<path d="M47.6471 11.9287C49.8414 11.9287 51.6184 13.7075 51.6184 15.899C51.6184 18.0928 49.8392 19.8694 47.6471 19.8694C45.4528 19.8694 43.6758 18.0906 43.6758 15.899C43.6758 13.7053 45.455 11.9287 47.6471 11.9287Z" fill="#171A74"/>
<path d="M55.5885 11.9287C57.7828 11.9287 59.5598 13.7075 59.5598 15.899C59.5598 18.0928 57.7806 19.8694 55.5885 19.8694C53.3942 19.8694 51.6172 18.0906 51.6172 15.899C51.6172 13.7053 53.3964 11.9287 55.5885 11.9287Z" fill="#171A74"/>
<path d="M63.5377 11.9287C65.732 11.9287 67.5091 13.7075 67.5091 15.899C67.5091 18.0928 65.7298 19.8694 63.5377 19.8694C61.3434 19.8694 59.5664 18.0906 59.5664 15.899C59.5664 13.7053 61.3456 11.9287 63.5377 11.9287Z" fill="#171A74"/>
<path d="M71.483 11.9287C73.6773 11.9287 75.4544 13.7075 75.4544 15.899C75.4544 18.0928 73.6752 19.8694 71.483 19.8694C69.2888 19.8694 67.5117 18.0906 67.5117 15.899C67.5117 13.7053 69.2909 11.9287 71.483 11.9287Z" fill="#171A74"/>
<path d="M79.4244 11.9287C81.6187 11.9287 83.3958 13.7075 83.3958 15.899C83.3958 18.0928 81.6166 19.8694 79.4244 19.8694C77.2302 19.8694 75.4531 18.0906 75.4531 15.899C75.4531 13.7053 77.2323 11.9287 79.4244 11.9287Z" fill="#171A74"/>
<path d="M87.3659 11.9287C89.5602 11.9287 91.3372 13.7075 91.3372 15.899C91.3372 18.0928 89.558 19.8694 87.3659 19.8694C85.1716 19.8694 83.3945 18.0906 83.3945 15.899C83.3945 13.7053 85.1738 11.9287 87.3659 11.9287Z" fill="#171A74"/>
<path d="M95.3151 11.9287C97.5094 11.9287 99.2864 13.7075 99.2864 15.899C99.2864 18.0928 97.5072 19.8694 95.3151 19.8694C93.1208 19.8694 91.3438 18.0906 91.3438 15.899C91.3438 13.7053 93.123 11.9287 95.3151 11.9287Z" fill="#171A74"/>
<path d="M103.257 11.9287C105.451 11.9287 107.228 13.7075 107.228 15.899C107.228 18.0928 105.449 19.8694 103.257 19.8694C101.062 19.8694 99.2852 18.0906 99.2852 15.899C99.2852 13.7053 101.064 11.9287 103.257 11.9287Z" fill="#171A74"/>
<path d="M111.202 11.9287C113.396 11.9287 115.173 13.7075 115.173 15.899C115.173 18.0928 113.394 19.8694 111.202 19.8694C109.008 19.8694 107.23 18.0906 107.23 15.899C107.23 13.7053 109.01 11.9287 111.202 11.9287Z" fill="#171A74"/>
<path d="M119.143 11.9287C121.338 11.9287 123.115 13.7075 123.115 15.899C123.115 18.0928 121.335 19.8694 119.143 19.8694C116.949 19.8694 115.172 18.0906 115.172 15.899C115.172 13.7053 116.951 11.9287 119.143 11.9287Z" fill="#171A74"/>
<path d="M31.7526 11.9287C33.9469 11.9287 35.7239 13.7075 35.7239 15.899C35.7239 18.0928 33.9447 19.8694 31.7526 19.8694C29.5583 19.8694 27.7812 18.0906 27.7812 15.899C27.7812 13.7053 29.5605 11.9287 31.7526 11.9287Z" fill="#171A74"/>
<path d="M39.7018 11.9287C41.8961 11.9287 43.6731 13.7075 43.6731 15.899C43.6731 18.0928 41.8939 19.8694 39.7018 19.8694C37.5075 19.8694 35.7305 18.0906 35.7305 15.899C35.7305 13.7053 37.5097 11.9287 39.7018 11.9287Z" fill="#171A74"/>
<path d="M47.6471 11.9287C49.8414 11.9287 51.6184 13.7075 51.6184 15.899C51.6184 18.0928 49.8392 19.8694 47.6471 19.8694C45.4528 19.8694 43.6758 18.0906 43.6758 15.899C43.6758 13.7053 45.455 11.9287 47.6471 11.9287Z" fill="#171A74"/>
<path d="M55.5885 11.9287C57.7828 11.9287 59.5598 13.7075 59.5598 15.899C59.5598 18.0928 57.7806 19.8694 55.5885 19.8694C53.3942 19.8694 51.6172 18.0906 51.6172 15.899C51.6172 13.7053 53.3964 11.9287 55.5885 11.9287Z" fill="#171A74"/>
<path d="M63.5377 11.9287C65.732 11.9287 67.5091 13.7075 67.5091 15.899C67.5091 18.0928 65.7298 19.8694 63.5377 19.8694C61.3434 19.8694 59.5664 18.0906 59.5664 15.899C59.5664 13.7053 61.3456 11.9287 63.5377 11.9287Z" fill="#171A74"/>
<path d="M71.483 11.9287C73.6773 11.9287 75.4544 13.7075 75.4544 15.899C75.4544 18.0928 73.6752 19.8694 71.483 19.8694C69.2888 19.8694 67.5117 18.0906 67.5117 15.899C67.5117 13.7053 69.2909 11.9287 71.483 11.9287Z" fill="#171A74"/>
<path d="M79.4244 11.9287C81.6187 11.9287 83.3958 13.7075 83.3958 15.899C83.3958 18.0928 81.6166 19.8694 79.4244 19.8694C77.2302 19.8694 75.4531 18.0906 75.4531 15.899C75.4531 13.7053 77.2323 11.9287 79.4244 11.9287Z" fill="#171A74"/>
<path d="M87.3659 11.9287C89.5602 11.9287 91.3372 13.7075 91.3372 15.899C91.3372 18.0928 89.558 19.8694 87.3659 19.8694C85.1716 19.8694 83.3945 18.0906 83.3945 15.899C83.3945 13.7053 85.1738 11.9287 87.3659 11.9287Z" fill="#171A74"/>
<path d="M95.3151 11.9287C97.5094 11.9287 99.2864 13.7075 99.2864 15.899C99.2864 18.0928 97.5072 19.8694 95.3151 19.8694C93.1208 19.8694 91.3438 18.0906 91.3438 15.899C91.3438 13.7053 93.123 11.9287 95.3151 11.9287Z" fill="#171A74"/>
<path d="M103.257 11.9287C105.451 11.9287 107.228 13.7075 107.228 15.899C107.228 18.0928 105.449 19.8694 103.257 19.8694C101.062 19.8694 99.2852 18.0906 99.2852 15.899C99.2852 13.7053 101.064 11.9287 103.257 11.9287Z" fill="#171A74"/>
<path d="M111.202 11.9287C113.396 11.9287 115.173 13.7075 115.173 15.899C115.173 18.0928 113.394 19.8694 111.202 19.8694C109.008 19.8694 107.23 18.0906 107.23 15.899C107.23 13.7053 109.01 11.9287 111.202 11.9287Z" fill="#171A74"/>
<path d="M119.143 11.9287C121.338 11.9287 123.115 13.7075 123.115 15.899C123.115 18.0928 121.335 19.8694 119.143 19.8694C116.949 19.8694 115.172 18.0906 115.172 15.899C115.172 13.7053 116.951 11.9287 119.143 11.9287Z" fill="#171A74"/>
<path d="M127.276 11.9287C129.47 11.9287 131.247 13.7075 131.247 15.899C131.247 18.0928 129.468 19.8694 127.276 19.8694C125.082 19.8694 123.305 18.0906 123.305 15.899C123.305 13.7053 125.084 11.9287 127.276 11.9287Z" fill="#171A74"/>
<path d="M135.217 11.9287C137.412 11.9287 139.189 13.7075 139.189 15.899C139.189 18.0928 137.41 19.8694 135.217 19.8694C133.023 19.8694 131.246 18.0906 131.246 15.899C131.246 13.7053 133.025 11.9287 135.217 11.9287Z" fill="#171A74"/>
<path d="M127.276 11.9287C129.47 11.9287 131.247 13.7075 131.247 15.899C131.247 18.0928 129.468 19.8694 127.276 19.8694C125.082 19.8694 123.305 18.0906 123.305 15.899C123.305 13.7053 125.084 11.9287 127.276 11.9287Z" fill="#171A74"/>
<path d="M135.217 11.9287C137.412 11.9287 139.189 13.7075 139.189 15.899C139.189 18.0928 137.41 19.8694 135.217 19.8694C133.023 19.8694 131.246 18.0906 131.246 15.899C131.246 13.7053 133.025 11.9287 135.217 11.9287Z" fill="#171A74"/>
</svg>
