<svg width="730" height="261" viewBox="0 0 730 261" fill="none" xmlns="http://www.w3.org/2000/svg">
<path d="M332.166 215.018V232.413C332.166 234.664 330.341 236.489 328.091 236.489C325.84 236.489 324.016 234.664 324.016 232.413V215.018C324.016 212.768 325.84 210.943 328.091 210.943C330.341 210.943 332.166 212.768 332.166 215.018Z" fill="#FFB54A"/>
<path d="M356.607 215.018V232.413C356.607 234.664 354.783 236.489 352.532 236.489C350.282 236.489 348.457 234.664 348.457 232.413V215.018C348.457 212.768 350.282 210.943 352.532 210.943C354.783 210.943 356.607 212.768 356.607 215.018Z" fill="#FFB54A"/>
<path d="M381.066 215.018V232.413C381.066 234.664 379.242 236.489 376.991 236.489C374.741 236.489 372.916 234.664 372.916 232.413V215.018C372.916 212.768 374.741 210.943 376.991 210.943C379.242 210.943 381.066 212.768 381.066 215.018Z" fill="#FFB54A"/>
<path d="M307.709 189.504V206.899C307.709 209.149 305.884 210.974 303.634 210.974C301.383 210.974 299.559 209.149 299.559 206.899V189.504C299.559 187.253 301.383 185.429 303.634 185.429C305.884 185.429 307.709 187.253 307.709 189.504Z" fill="#FFB54A"/>
<path d="M340.309 189.504V206.899C340.309 209.149 338.484 210.974 336.233 210.974C333.983 210.974 332.158 209.149 332.158 206.899V189.504C332.158 187.253 333.983 185.429 336.233 185.429C338.484 185.429 340.309 187.253 340.309 189.504Z" fill="#FFB54A"/>
<path d="M364.768 189.504V206.899C364.768 209.149 362.943 210.974 360.692 210.974C358.442 210.974 356.617 209.149 356.617 206.899V189.504C356.617 187.253 358.442 185.429 360.692 185.429C362.943 185.429 364.768 187.253 364.768 189.504Z" fill="#FFB54A"/>
<path d="M397.367 189.504V206.899C397.367 209.149 395.543 210.974 393.292 210.974C391.041 210.974 389.217 209.149 389.217 206.899V189.504C389.217 187.253 391.041 185.429 393.292 185.429C395.543 185.429 397.367 187.253 397.367 189.504Z" fill="#FFB54A"/>
<path d="M324.008 163.931V181.326C324.008 183.576 322.183 185.401 319.933 185.401C317.682 185.401 315.857 183.576 315.857 181.326V163.931C315.857 161.68 317.682 159.855 319.933 159.855C322.183 159.855 324.008 161.68 324.008 163.931Z" fill="#FFB54A"/>
<path d="M372.906 163.931V181.326C372.906 183.576 371.082 185.401 368.831 185.401C366.58 185.401 364.756 183.576 364.756 181.326V163.931C364.756 161.68 366.58 159.855 368.831 159.855C371.082 159.855 372.906 161.68 372.906 163.931Z" fill="#FFB54A"/>
<path d="M389.207 163.931V181.326C389.207 183.576 387.382 185.401 385.132 185.401C382.881 185.401 381.057 183.576 381.057 181.326V163.931C381.057 161.68 382.881 159.855 385.132 159.855C387.382 159.855 389.207 161.68 389.207 163.931Z" fill="#FFB54A"/>
<path d="M348.467 138.413V155.808C348.467 158.059 346.642 159.883 344.392 159.883C342.141 159.883 340.316 158.059 340.316 155.808V138.413C340.316 136.162 342.141 134.338 344.392 134.338C346.642 134.338 348.467 136.162 348.467 138.413Z" fill="#FFB54A"/>
<path d="M364.768 138.413V155.808C364.768 158.059 362.943 159.883 360.692 159.883C358.442 159.883 356.617 158.059 356.617 155.808V138.413C356.617 136.162 358.442 134.338 360.692 134.338C362.943 134.338 364.768 136.162 364.768 138.413Z" fill="#FFB54A"/>
<path d="M405.508 138.413V155.808C405.508 158.059 403.683 159.883 401.433 159.883C399.182 159.883 397.357 158.059 397.357 155.808V138.413C397.357 136.162 399.182 134.338 401.433 134.338C403.683 134.338 405.508 136.162 405.508 138.413Z" fill="#FFB54A"/>
<path d="M381.066 112.843V130.238C381.066 132.488 379.242 134.313 376.991 134.313C374.741 134.313 372.916 132.488 372.916 130.238V112.843C372.916 110.592 374.741 108.768 376.991 108.768C379.242 108.768 381.066 110.592 381.066 112.843Z" fill="#FFB54A"/>
<path d="M397.367 112.843V130.238C397.367 132.488 395.543 134.313 393.292 134.313C391.041 134.313 389.217 132.488 389.217 130.238V112.843C389.217 110.592 391.041 108.768 393.292 108.768C395.543 108.768 397.367 110.592 397.367 112.843Z" fill="#FFB54A"/>
<path d="M332.166 87.3252V104.72C332.166 106.971 330.341 108.795 328.091 108.795C325.84 108.795 324.016 106.971 324.016 104.72V87.3252C324.016 85.0745 325.84 83.25 328.091 83.25C330.341 83.25 332.166 85.0745 332.166 87.3252Z" fill="#FFB54A"/>
<path d="M364.768 87.3252V104.72C364.768 106.971 362.943 108.795 360.692 108.795C358.442 108.795 356.617 106.971 356.617 104.72V87.3252C356.617 85.0745 358.442 83.25 360.692 83.25C362.943 83.25 364.768 85.0745 364.768 87.3252Z" fill="#FFB54A"/>
<path d="M405.508 87.3252V104.72C405.508 106.971 403.683 108.795 401.433 108.795C399.182 108.795 397.357 106.971 397.357 104.72V87.3252C397.357 85.0745 399.182 83.25 401.433 83.25C403.683 83.25 405.508 85.0745 405.508 87.3252Z" fill="#FFB54A"/>
<path d="M656.316 207.501V224.896C656.316 227.147 654.492 228.971 652.241 228.971C649.991 228.971 648.166 227.147 648.166 224.896V207.501C648.166 205.25 649.991 203.426 652.241 203.426C654.492 203.426 656.316 205.25 656.316 207.501Z" fill="#FFB54A"/>
<path d="M688.916 207.501V224.896C688.916 227.147 687.091 228.971 684.841 228.971C682.59 228.971 680.766 227.147 680.766 224.896V207.501C680.766 205.25 682.59 203.426 684.841 203.426C687.091 203.426 688.916 205.25 688.916 207.501Z" fill="#FFB54A"/>
<path d="M672.617 181.986V199.381C672.617 201.632 670.793 203.456 668.542 203.456C666.291 203.456 664.467 201.632 664.467 199.381V181.986C664.467 179.736 666.291 177.911 668.542 177.911C670.793 177.911 672.617 179.736 672.617 181.986Z" fill="#FFB54A"/>
<path d="M697.059 181.986V199.381C697.059 201.632 695.234 203.456 692.983 203.456C690.733 203.456 688.908 201.632 688.908 199.381V181.986C688.908 179.736 690.733 177.911 692.983 177.911C695.234 177.911 697.059 179.736 697.059 181.986Z" fill="#FFB54A"/>
<path d="M656.316 156.413V173.808C656.316 176.059 654.492 177.883 652.241 177.883C649.991 177.883 648.166 176.059 648.166 173.808V156.413C648.166 154.162 649.991 152.338 652.241 152.338C654.492 152.338 656.316 154.162 656.316 156.413Z" fill="#FFB54A"/>
<path d="M688.916 156.413V173.808C688.916 176.059 687.091 177.883 684.841 177.883C682.59 177.883 680.766 176.059 680.766 173.808V156.413C680.766 154.162 682.59 152.338 684.841 152.338C687.091 152.338 688.916 154.162 688.916 156.413Z" fill="#FFB54A"/>
<path d="M582.959 130.898V148.293C582.959 150.544 581.134 152.369 578.884 152.369C576.633 152.369 574.809 150.544 574.809 148.293V130.898C574.809 128.648 576.633 126.823 578.884 126.823C581.134 126.823 582.959 128.648 582.959 130.898Z" fill="#FFB54A"/>
<path d="M623.717 130.898V148.293C623.717 150.544 621.892 152.369 619.642 152.369C617.391 152.369 615.566 150.544 615.566 148.293V130.898C615.566 128.648 617.391 126.823 619.642 126.823C621.892 126.823 623.717 128.648 623.717 130.898Z" fill="#FFB54A"/>
<path d="M672.617 130.898V148.293C672.617 150.544 670.793 152.369 668.542 152.369C666.291 152.369 664.467 150.544 664.467 148.293V130.898C664.467 128.648 666.291 126.823 668.542 126.823C670.793 126.823 672.617 128.648 672.617 130.898Z" fill="#FFB54A"/>
<path d="M705.215 130.898V148.293C705.215 150.544 703.39 152.369 701.14 152.369C698.889 152.369 697.064 150.544 697.064 148.293V130.898C697.064 128.648 698.889 126.823 701.14 126.823C703.39 126.823 705.215 128.648 705.215 130.898Z" fill="#FFB54A"/>
<path d="M721.516 130.898V148.293C721.516 150.544 719.691 152.369 717.44 152.369C715.19 152.369 713.365 150.544 713.365 148.293V130.898C713.365 128.648 715.19 126.823 717.44 126.823C719.691 126.823 721.516 128.648 721.516 130.898Z" fill="#FFB54A"/>
<path d="M688.916 105.328V122.723C688.916 124.974 687.091 126.798 684.841 126.798C682.59 126.798 680.766 124.974 680.766 122.723V105.328C680.766 103.077 682.59 101.253 684.841 101.253C687.091 101.253 688.916 103.077 688.916 105.328Z" fill="#FFB54A"/>
<path d="M656.316 79.8047V97.1997C656.316 99.4503 654.492 101.275 652.241 101.275C649.991 101.275 648.166 99.4503 648.166 97.1997V79.8047C648.166 77.554 649.991 75.7295 652.241 75.7295C654.492 75.7295 656.316 77.554 656.316 79.8047Z" fill="#FFB54A"/>
<path d="M697.059 79.8047V97.1997C697.059 99.4503 695.234 101.275 692.983 101.275C690.733 101.275 688.908 99.4503 688.908 97.1997V79.8047C688.908 77.554 690.733 75.7295 692.983 75.7295C695.234 75.7295 697.059 77.554 697.059 79.8047Z" fill="#FFB54A"/>
<path d="M713.359 79.8047V97.1997C713.359 99.4503 711.535 101.275 709.284 101.275C707.033 101.275 705.209 99.4503 705.209 97.1997V79.8047C705.209 77.554 707.033 75.7295 709.284 75.7295C711.535 75.7295 713.359 77.554 713.359 79.8047Z" fill="#FFB54A"/>
<path d="M729.676 79.8047V97.1997C729.676 99.4503 727.851 101.275 725.601 101.275C723.35 101.275 721.525 99.4503 721.525 97.1997V79.8047C721.525 77.554 723.35 75.7295 725.601 75.7295C727.851 75.7295 729.676 77.554 729.676 79.8047Z" fill="#FFB54A"/>
<path d="M169.508 239.953V257.348C169.508 259.599 167.683 261.423 165.433 261.423C163.182 261.423 161.357 259.599 161.357 257.348V239.953C161.357 237.702 163.182 235.878 165.433 235.878C167.683 235.878 169.508 237.702 169.508 239.953Z" fill="#FFB54A"/>
<path d="M291.766 239.953V257.348C291.766 259.599 289.941 261.423 287.69 261.423C285.44 261.423 283.615 259.599 283.615 257.348V239.953C283.615 237.702 285.44 235.878 287.69 235.878C289.941 235.878 291.766 237.702 291.766 239.953Z" fill="#FFB54A"/>
<path d="M267.309 214.43V231.825C267.309 234.075 265.484 235.9 263.233 235.9C260.983 235.9 259.158 234.075 259.158 231.825V214.43C259.158 212.179 260.983 210.354 263.233 210.354C265.484 210.354 267.309 212.179 267.309 214.43Z" fill="#FFB54A"/>
<path d="M299.926 214.43V231.825C299.926 234.075 298.101 235.9 295.851 235.9C293.6 235.9 291.775 234.075 291.775 231.825V214.43C291.775 212.179 293.6 210.354 295.851 210.354C298.101 210.354 299.926 212.179 299.926 214.43Z" fill="#FFB54A"/>
<path d="M185.809 188.865V206.26C185.809 208.511 183.984 210.335 181.733 210.335C179.483 210.335 177.658 208.511 177.658 206.26V188.865C177.658 186.615 179.483 184.79 181.733 184.79C183.984 184.79 185.809 186.615 185.809 188.865Z" fill="#FFB54A"/>
<path d="M283.609 188.865V206.26C283.609 208.511 281.785 210.335 279.534 210.335C277.283 210.335 275.459 208.511 275.459 206.26V188.865C275.459 186.615 277.283 184.79 279.534 184.79C281.785 184.79 283.609 186.615 283.609 188.865Z" fill="#FFB54A"/>
<path d="M210.268 163.342V180.737C210.268 182.987 208.443 184.812 206.192 184.812C203.942 184.812 202.117 182.987 202.117 180.737V163.342C202.117 161.091 203.942 159.267 206.192 159.267C208.443 159.267 210.268 161.091 210.268 163.342Z" fill="#FFB54A"/>
<path d="M193.967 137.777V155.172C193.967 157.423 192.142 159.247 189.892 159.247C187.641 159.247 185.816 157.423 185.816 155.172V137.777C185.816 135.527 187.641 133.702 189.892 133.702C192.142 133.702 193.967 135.527 193.967 137.777Z" fill="#FFB54A"/>
<path d="M291.766 137.777V155.172C291.766 157.423 289.941 159.247 287.69 159.247C285.44 159.247 283.615 157.423 283.615 155.172V137.777C283.615 135.527 285.44 133.702 287.69 133.702C289.941 133.702 291.766 135.527 291.766 137.777Z" fill="#FFB54A"/>
<path d="M275.465 112.254V129.649C275.465 131.899 273.64 133.724 271.39 133.724C269.139 133.724 267.314 131.899 267.314 129.649V112.254C267.314 110.003 269.139 108.179 271.39 108.179C273.64 108.179 275.465 110.003 275.465 112.254Z" fill="#FFB54A"/>
<path d="M226.566 86.6865V104.082C226.566 106.332 224.742 108.157 222.491 108.157C220.241 108.157 218.416 106.332 218.416 104.082V86.6865C218.416 84.4359 220.241 82.6114 222.491 82.6114C224.742 82.6114 226.566 84.4359 226.566 86.6865Z" fill="#FFB54A"/>
<path d="M210.268 61.1631V78.5581C210.268 80.8087 208.443 82.6332 206.192 82.6332C203.942 82.6332 202.117 80.8087 202.117 78.5581V61.1631C202.117 58.9124 203.942 57.0879 206.192 57.0879C208.443 57.0879 210.268 58.9124 210.268 61.1631Z" fill="#FFB54A"/>
<path d="M251.008 35.6015V52.9966C251.008 55.2472 249.183 57.0717 246.933 57.0717C244.682 57.0717 242.857 55.2472 242.857 52.9966V35.6015C242.857 33.3509 244.682 31.5264 246.933 31.5264C249.183 31.5264 251.008 33.3509 251.008 35.6015Z" fill="#FFB54A"/>
<path d="M226.566 10.0752V27.4702C226.566 29.7208 224.742 31.5453 222.491 31.5453C220.241 31.5453 218.416 29.7208 218.416 27.4702V10.0752C218.416 7.82453 220.241 6.00002 222.491 6.00002C224.742 6.00002 226.566 7.82453 226.566 10.0752Z" fill="#FFB54A"/>
<path d="M421.6 150.463V167.858C421.6 170.108 419.775 171.933 417.524 171.933C415.274 171.933 413.449 170.108 413.449 167.858V150.463C413.449 148.212 415.274 146.388 417.524 146.388C419.775 146.388 421.6 148.212 421.6 150.463Z" fill="#FFB54A"/>
<path d="M446.059 150.463V167.858C446.059 170.108 444.234 171.933 441.983 171.933C439.733 171.933 437.908 170.108 437.908 167.858V150.463C437.908 148.212 439.733 146.388 441.983 146.388C444.234 146.388 446.059 148.212 446.059 150.463Z" fill="#FFB54A"/>
<path d="M470.502 150.463V167.858C470.502 170.108 468.677 171.933 466.427 171.933C464.176 171.933 462.352 170.108 462.352 167.858V150.463C462.352 148.212 464.176 146.388 466.427 146.388C468.677 146.388 470.502 148.212 470.502 150.463Z" fill="#FFB54A"/>
<path d="M519.416 150.463V167.858C519.416 170.108 517.591 171.933 515.341 171.933C513.09 171.933 511.266 170.108 511.266 167.858V150.463C511.266 148.212 513.09 146.388 515.341 146.388C517.591 146.388 519.416 148.212 519.416 150.463Z" fill="#FFB54A"/>
<path d="M543.859 150.463V167.858C543.859 170.108 542.035 171.933 539.784 171.933C537.533 171.933 535.709 170.108 535.709 167.858V150.463C535.709 148.212 537.533 146.388 539.784 146.388C542.035 146.388 543.859 148.212 543.859 150.463Z" fill="#FFB54A"/>
<path d="M558.8 168.537C558.8 170.413 557.279 171.933 555.404 171.933C553.528 171.933 552.008 170.413 552.008 168.537V146.388V124.238C552.008 122.363 553.528 120.842 555.404 120.842C557.279 120.842 558.8 122.363 558.8 124.238V146.388V168.537Z" fill="#FFB54A"/>
<path d="M566.953 150.488C566.953 148.237 568.778 146.413 571.028 146.413C573.279 146.413 575.103 148.237 575.103 150.488V171.958V193.428C575.103 195.679 573.279 197.503 571.028 197.503C568.778 197.503 566.953 195.679 566.953 193.428V171.958V150.488Z" fill="#FFB54A"/>
<path d="M429.76 124.895V142.29C429.76 144.541 427.935 146.366 425.685 146.366C423.434 146.366 421.609 144.541 421.609 142.29V124.895C421.609 122.645 423.434 120.82 425.685 120.82C427.935 120.82 429.76 122.645 429.76 124.895Z" fill="#FFB54A"/>
<path d="M494.959 124.895V142.29C494.959 144.541 493.134 146.366 490.884 146.366C488.633 146.366 486.809 144.541 486.809 142.29V124.895C486.809 122.645 488.633 120.82 490.884 120.82C493.134 120.82 494.959 122.645 494.959 124.895Z" fill="#FFB54A"/>
<path d="M535.717 124.895V142.29C535.717 144.541 533.892 146.366 531.642 146.366C529.391 146.366 527.566 144.541 527.566 142.29V124.895C527.566 122.645 529.391 120.82 531.642 120.82C533.892 120.82 535.717 122.645 535.717 124.895Z" fill="#FFB54A"/>
<path d="M413.459 99.3721V116.767C413.459 119.018 411.634 120.842 409.384 120.842C407.133 120.842 405.309 119.018 405.309 116.767V99.3721C405.309 97.1214 407.133 95.2969 409.384 95.2969C411.634 95.2969 413.459 97.1214 413.459 99.3721Z" fill="#FFB54A"/>
<path d="M437.9 99.3721V116.767C437.9 119.018 436.076 120.842 433.825 120.842C431.575 120.842 429.75 119.018 429.75 116.767V99.3721C429.75 97.1214 431.575 95.2969 433.825 95.2969C436.076 95.2969 437.9 97.1214 437.9 99.3721Z" fill="#FFB54A"/>
<path d="M454.201 99.3721V116.767C454.201 119.018 452.377 120.842 450.126 120.842C447.875 120.842 446.051 119.018 446.051 116.767V99.3721C446.051 97.1214 447.875 95.2969 450.126 95.2969C452.377 95.2969 454.201 97.1214 454.201 99.3721Z" fill="#FFB54A"/>
<path d="M478.658 99.3721V116.767C478.658 119.018 476.834 120.842 474.583 120.842C472.332 120.842 470.508 119.018 470.508 116.767V99.3721C470.508 97.1214 472.332 95.2969 474.583 95.2969C476.834 95.2969 478.658 97.1214 478.658 99.3721Z" fill="#FFB54A"/>
<path d="M519.416 99.3721V116.767C519.416 119.018 517.591 120.842 515.341 120.842C513.09 120.842 511.266 119.018 511.266 116.767V99.3721C511.266 97.1214 513.09 95.2969 515.341 95.2969C517.591 95.2969 519.416 97.1214 519.416 99.3721Z" fill="#FFB54A"/>
<path d="M552.018 99.3721V116.767C552.018 119.018 550.193 120.842 547.942 120.842C545.692 120.842 543.867 119.018 543.867 116.767V99.3721C543.867 97.1214 545.692 95.2969 547.942 95.2969C550.193 95.2969 552.018 97.1214 552.018 99.3721Z" fill="#FFB54A"/>
<path d="M566.959 116.767C566.959 119.018 565.134 120.842 562.884 120.842C560.633 120.842 558.809 119.018 558.809 116.767V95.2969V73.8267C558.809 71.5761 560.633 69.7516 562.884 69.7516C565.134 69.7516 566.959 71.5761 566.959 73.8267V95.2969V116.767Z" fill="#FFB54A"/>
<path d="M453.959 176.575V193.97C453.959 196.221 452.134 198.045 449.884 198.045C447.633 198.045 445.809 196.221 445.809 193.97V176.575C445.809 174.324 447.633 172.5 449.884 172.5C452.134 172.5 453.959 174.324 453.959 176.575Z" fill="#FFB54A"/>
<path d="M470.258 176.575V193.97C470.258 196.221 468.433 198.045 466.183 198.045C463.932 198.045 462.107 196.221 462.107 193.97V176.575C462.107 174.324 463.932 172.5 466.183 172.5C468.433 172.5 470.258 174.324 470.258 176.575Z" fill="#FFB54A"/>
<path d="M486.557 176.575V193.97C486.557 196.221 484.732 198.045 482.481 198.045C480.231 198.045 478.406 196.221 478.406 193.97V176.575C478.406 174.324 480.231 172.5 482.481 172.5C484.732 172.5 486.557 174.324 486.557 176.575Z" fill="#FFB54A"/>
<path d="M527.316 176.575V193.97C527.316 196.221 525.492 198.045 523.241 198.045C520.991 198.045 519.166 196.221 519.166 193.97V176.575C519.166 174.324 520.991 172.5 523.241 172.5C525.492 172.5 527.316 174.324 527.316 176.575Z" fill="#FFB54A"/>
<path d="M559.916 176.575V193.97C559.916 196.221 558.091 198.045 555.841 198.045C553.59 198.045 551.766 196.221 551.766 193.97V176.575C551.766 174.324 553.59 172.5 555.841 172.5C558.091 172.5 559.916 174.324 559.916 176.575Z" fill="#FFB54A"/>
<path d="M8.15032 234V251.395C8.15032 253.646 6.32581 255.47 4.07516 255.47C1.82451 255.47 0 253.646 0 251.395V234C0 231.749 1.82451 229.925 4.07516 229.925C6.32581 229.925 8.15032 231.749 8.15032 234Z" fill="#FFB54A"/>
<path d="M40.7519 234V251.395C40.7519 253.646 38.9274 255.47 36.6767 255.47C34.4261 255.47 32.6016 253.646 32.6016 251.395V234C32.6016 231.749 34.4261 229.925 36.6767 229.925C38.9274 229.925 40.7519 231.749 40.7519 234Z" fill="#FFB54A"/>
<path d="M57.0683 234V251.395C57.0683 253.646 55.2438 255.47 52.9931 255.47C50.7425 255.47 48.918 253.646 48.918 251.395V234C48.918 231.749 50.7425 229.925 52.9931 229.925C55.2438 229.925 57.0683 231.749 57.0683 234Z" fill="#FFB54A"/>
<path d="M89.6659 234V251.395C89.6659 253.646 87.8414 255.47 85.5908 255.47C83.3401 255.47 81.5156 253.646 81.5156 251.395V234C81.5156 231.749 83.3401 229.925 85.5908 229.925C87.8414 229.925 89.6659 231.749 89.6659 234Z" fill="#FFB54A"/>
<path d="M114.109 234V251.395C114.109 253.646 112.285 255.47 110.034 255.47C107.783 255.47 105.959 253.646 105.959 251.395V234C105.959 231.749 107.783 229.925 110.034 229.925C112.285 229.925 114.109 231.749 114.109 234Z" fill="#FFB54A"/>
<path d="M129.05 233.321V252.074C129.05 253.95 127.529 255.47 125.654 255.47C123.778 255.47 122.258 253.95 122.258 252.074V233.321C122.258 231.445 123.778 229.925 125.654 229.925C127.529 229.925 129.05 231.445 129.05 233.321Z" fill="#FFB54A"/>
<path d="M137.203 229.925V208.455C137.203 206.204 139.028 204.379 141.278 204.379C143.529 204.379 145.353 206.204 145.353 208.455V229.925V251.395C145.353 253.646 143.529 255.47 141.278 255.47C139.028 255.47 137.203 253.646 137.203 251.395V229.925Z" fill="#FFB54A"/>
<path d="M16.3085 208.438V225.833C16.3085 228.084 14.484 229.909 12.2334 229.909C9.98272 229.909 8.1582 228.084 8.1582 225.833V208.438C8.1582 206.188 9.98272 204.363 12.2334 204.363C14.484 204.363 16.3085 206.188 16.3085 208.438Z" fill="#FFB54A"/>
<path d="M32.6074 208.438V225.833C32.6074 228.084 30.7828 229.909 28.5322 229.909C26.2815 229.909 24.457 228.084 24.457 225.833V208.438C24.457 206.188 26.2815 204.363 28.5322 204.363C30.7828 204.363 32.6074 206.188 32.6074 208.438Z" fill="#FFB54A"/>
<path d="M73.3671 208.438V225.833C73.3671 228.084 71.5426 229.909 69.292 229.909C67.0413 229.909 65.2168 228.084 65.2168 225.833V208.438C65.2168 206.188 67.0413 204.363 69.292 204.363C71.5426 204.363 73.3671 206.188 73.3671 208.438Z" fill="#FFB54A"/>
<path d="M8.15032 182.912V200.307C8.15032 202.558 6.32581 204.382 4.07516 204.382C1.82451 204.382 0 202.558 0 200.307V182.912C0 180.661 1.82451 178.837 4.07516 178.837C6.32581 178.837 8.15032 180.661 8.15032 182.912Z" fill="#FFB54A"/>
<path d="M24.4511 182.912V200.307C24.4511 202.558 22.6266 204.382 20.3759 204.382C18.1253 204.382 16.3008 202.558 16.3008 200.307V182.912C16.3008 180.661 18.1253 178.837 20.3759 178.837C22.6266 178.837 24.4511 180.661 24.4511 182.912Z" fill="#FFB54A"/>
<path d="M48.9081 182.912V200.307C48.9081 202.558 47.0836 204.382 44.833 204.382C42.5823 204.382 40.7578 202.558 40.7578 200.307V182.912C40.7578 180.661 42.5823 178.837 44.833 178.837C47.0836 178.837 48.9081 180.661 48.9081 182.912Z" fill="#FFB54A"/>
<path d="M89.6659 182.912V200.307C89.6659 202.558 87.8414 204.382 85.5908 204.382C83.3401 204.382 81.5156 202.558 81.5156 200.307V182.912C81.5156 180.661 83.3401 178.837 85.5908 178.837C87.8414 178.837 89.6659 180.661 89.6659 182.912Z" fill="#FFB54A"/>
<path d="M105.967 182.912V200.307C105.967 202.558 104.142 204.382 101.892 204.382C99.6409 204.382 97.8164 202.558 97.8164 200.307V182.912C97.8164 180.661 99.6409 178.837 101.892 178.837C104.142 178.837 105.967 180.661 105.967 182.912Z" fill="#FFB54A"/>
<path d="M122.268 182.912V200.307C122.268 202.558 120.443 204.382 118.192 204.382C115.942 204.382 114.117 202.558 114.117 200.307V182.912C114.117 180.661 115.942 178.837 118.192 178.837C120.443 178.837 122.268 180.661 122.268 182.912Z" fill="#FFB54A"/>
<path d="M137.209 182.912V200.307C137.209 202.558 135.384 204.382 133.134 204.382C130.883 204.382 129.059 202.558 129.059 200.307V182.912C129.059 180.661 130.883 178.837 133.134 178.837C135.384 178.837 137.209 180.661 137.209 182.912Z" fill="#FFB54A"/>
<path d="M32.6074 157.348V174.743C32.6074 176.993 30.7828 178.818 28.5322 178.818C26.2815 178.818 24.457 176.993 24.457 174.743V157.348C24.457 155.097 26.2815 153.272 28.5322 153.272C30.7828 153.272 32.6074 155.097 32.6074 157.348Z" fill="#FFB54A"/>
<path d="M57.0683 157.348V174.743C57.0683 176.993 55.2438 178.818 52.9931 178.818C50.7425 178.818 48.918 176.993 48.918 174.743V157.348C48.918 155.097 50.7425 153.272 52.9931 153.272C55.2438 153.272 57.0683 155.097 57.0683 157.348Z" fill="#FFB54A"/>
<path d="M73.3671 157.348V174.743C73.3671 176.993 71.5426 178.818 69.292 178.818C67.0413 178.818 65.2168 176.993 65.2168 174.743V157.348C65.2168 155.097 67.0413 153.272 69.292 153.272C71.5426 153.272 73.3671 155.097 73.3671 157.348Z" fill="#FFB54A"/>
<path d="M129.05 156.668V175.422C129.05 177.297 127.529 178.818 125.654 178.818C123.778 178.818 122.258 177.297 122.258 175.422V156.668C122.258 154.793 123.778 153.272 125.654 153.272C127.529 153.272 129.05 154.793 129.05 156.668Z" fill="#FFB54A"/>
<path d="M16.3085 131.824V149.219C16.3085 151.47 14.484 153.294 12.2334 153.294C9.98272 153.294 8.1582 151.47 8.1582 149.219V131.824C8.1582 129.573 9.98272 127.749 12.2334 127.749C14.484 127.749 16.3085 129.573 16.3085 131.824Z" fill="#FFB54A"/>
<path d="M40.7519 131.824V149.219C40.7519 151.47 38.9274 153.294 36.6767 153.294C34.4261 153.294 32.6016 151.47 32.6016 149.219V131.824C32.6016 129.573 34.4261 127.749 36.6767 127.749C38.9274 127.749 40.7519 129.573 40.7519 131.824Z" fill="#FFB54A"/>
<path d="M89.6659 131.824V149.219C89.6659 151.47 87.8414 153.294 85.5908 153.294C83.3401 153.294 81.5156 151.47 81.5156 149.219V131.824C81.5156 129.573 83.3401 127.749 85.5908 127.749C87.8414 127.749 89.6659 129.573 89.6659 131.824Z" fill="#FFB54A"/>
<path d="M105.967 131.824V149.219C105.967 151.47 104.142 153.294 101.892 153.294C99.6409 153.294 97.8164 151.47 97.8164 149.219V131.824C97.8164 129.573 99.6409 127.749 101.892 127.749C104.142 127.749 105.967 129.573 105.967 131.824Z" fill="#FFB54A"/>
<path d="M137.209 131.824V149.219C137.209 151.47 135.384 153.294 133.134 153.294C130.883 153.294 129.059 151.47 129.059 149.219V131.824C129.059 129.573 130.883 127.749 133.134 127.749C135.384 127.749 137.209 129.573 137.209 131.824Z" fill="#FFB54A"/>
<path d="M48.9081 106.26V123.655C48.9081 125.905 47.0836 127.73 44.833 127.73C42.5823 127.73 40.7578 125.905 40.7578 123.655V106.26C40.7578 104.009 42.5823 102.185 44.833 102.185C47.0836 102.185 48.9081 104.009 48.9081 106.26Z" fill="#FFB54A"/>
<path d="M65.2089 106.26V123.655C65.2089 125.905 63.3844 127.73 61.1338 127.73C58.8831 127.73 57.0586 125.905 57.0586 123.655V106.26C57.0586 104.009 58.8831 102.185 61.1338 102.185C63.3844 102.185 65.2089 104.009 65.2089 106.26Z" fill="#FFB54A"/>
<path d="M114.109 106.26V123.655C114.109 125.905 112.285 127.73 110.034 127.73C107.783 127.73 105.959 125.905 105.959 123.655V106.26C105.959 104.009 107.783 102.185 110.034 102.185C112.285 102.185 114.109 104.009 114.109 106.26Z" fill="#FFB54A"/>
<path d="M145.353 106.26V123.655C145.353 125.905 143.529 127.73 141.278 127.73C139.028 127.73 137.203 125.905 137.203 123.655V106.26C137.203 104.009 139.028 102.185 141.278 102.185C143.529 102.185 145.353 104.009 145.353 106.26Z" fill="#FFB54A"/>
<path d="M32.6074 80.7334V98.1284C32.6074 100.379 30.7828 102.204 28.5322 102.204C26.2815 102.204 24.457 100.379 24.457 98.1284V80.7334C24.457 78.4827 26.2815 76.6582 28.5322 76.6582C30.7828 76.6582 32.6074 78.4827 32.6074 80.7334Z" fill="#FFB54A"/>
<path d="M81.5077 80.7334V98.1284C81.5077 100.379 79.6832 102.204 77.4326 102.204C75.1819 102.204 73.3574 100.379 73.3574 98.1284V80.7334C73.3574 78.4827 75.1819 76.6582 77.4326 76.6582C79.6832 76.6582 81.5077 78.4827 81.5077 80.7334Z" fill="#FFB54A"/>
<path d="M97.8066 80.7334V98.1284C97.8066 100.379 95.9821 102.204 93.7314 102.204C91.4808 102.204 89.6562 100.379 89.6562 98.1284V80.7334C89.6562 78.4827 91.4808 76.6582 93.7314 76.6582C95.9821 76.6582 97.8066 78.4827 97.8066 80.7334Z" fill="#FFB54A"/>
<path d="M129.05 80.0542V98.8076C129.05 100.683 127.529 102.204 125.654 102.204C123.778 102.204 122.258 100.683 122.258 98.8076V80.0542C122.258 78.1787 123.778 76.6582 125.654 76.6582C127.529 76.6582 129.05 78.1786 129.05 80.0542Z" fill="#FFB54A"/>
<path d="M65.2089 55.1631V72.5581C65.2089 74.8087 63.3844 76.6332 61.1338 76.6332C58.8831 76.6332 57.0586 74.8087 57.0586 72.5581V55.1631C57.0586 52.9124 58.8831 51.0879 61.1338 51.0879C63.3844 51.0879 65.2089 52.9124 65.2089 55.1631Z" fill="#FFB54A"/>
<path d="M129.05 28.9663V47.7197C129.05 49.5952 127.529 51.1157 125.654 51.1157C123.778 51.1157 122.258 49.5952 122.258 47.7197V28.9663C122.258 27.0908 123.778 25.5703 125.654 25.5703C127.529 25.5703 129.05 27.0908 129.05 28.9663Z" fill="#FFB54A"/>
<path d="M114.109 4.07518V21.4702C114.109 23.7208 112.285 25.5453 110.034 25.5453C107.783 25.5453 105.959 23.7208 105.959 21.4702V4.07518C105.959 1.82453 107.783 2.28882e-05 110.034 2.28882e-05C112.285 2.28882e-05 114.109 1.82453 114.109 4.07518Z" fill="#FFB54A"/>
</svg>
