<svg width="491" height="140" viewBox="0 0 491 140" fill="none" xmlns="http://www.w3.org/2000/svg">
<g clip-path="url(#clip0_1_2)">
<path d="M0 98.7956V127.564L39.2995 140L55.521 133.703C57.4278 132.959 57.3196 130.172 55.3587 129.594L22.3883 119.835L40.6992 113.152L74.2173 121.789L108.229 108.493C111.252 107.309 111.049 102.897 107.932 102.01L40.6924 82.8286L0 98.7956Z" fill="#161A79"/>
<path d="M76.2729 82.5258L109.548 69.8348C112.563 68.6855 112.415 64.2946 109.331 63.3586L40.6992 42.4019L0 58.5547V88.5272L40.6992 72.98L76.2729 82.5327V82.5258Z" fill="#161A79"/>
<path d="M77.9228 43.9229L108.871 32.3193C111.799 31.2251 111.806 27.0131 108.885 25.905L40.6992 0L0 19.2361V48.7061L40.6992 32.5533L77.9228 43.916V43.9229Z" fill="#161A79"/>
<path d="M184.977 71.1166L221.68 123.002H196.425L169.918 85.8034L159.877 97.6204V123.002H139.017V28.1709H159.877V76.065H160.506C163.643 70.9583 169.601 62.3347 174.936 55.4662L196.736 28.1641H220.267L184.97 71.1097L184.977 71.1166Z" fill="#161A79"/>
<path d="M259.641 124.441C238.152 124.441 222.309 109.114 222.309 87.8819C222.309 66.65 238.152 51.323 259.641 51.323C281.129 51.323 296.972 66.65 296.972 87.8819C296.972 109.114 281.285 124.441 259.641 124.441ZM259.641 69.2033C250.228 69.2033 243.013 76.5467 243.013 87.8819C243.013 99.2171 250.228 106.56 259.641 106.56C269.053 106.56 276.268 99.2171 276.268 87.8819C276.268 76.5467 269.053 69.2033 259.641 69.2033Z" fill="#161A79"/>
<path d="M350.769 71.7566C349.356 70.9583 346.063 70.3182 343.243 70.3182C337.597 70.3182 331.951 72.3967 327.711 75.9067V123.002H307.791V53.2363L327.711 52.2797V60.5798C333.831 54.193 340.106 51.323 347.003 51.323C348.416 51.323 350.451 51.6396 351.553 52.1214L350.769 71.7566Z" fill="#161A79"/>
<path d="M425.433 123.009H405.512V117.104C398.926 122.211 392.334 124.448 384.652 124.448C370.378 124.448 360.966 116.622 360.966 99.0656V53.2432L380.886 52.2866V94.7573C380.886 103.057 385.119 106.409 392.023 106.409C396.573 106.409 401.28 104.654 405.512 102.101V53.2432L425.433 52.2866V123.016V123.009Z" fill="#161A79"/>
<path d="M485.038 71.44C480.643 69.2033 473.746 67.7649 467.315 67.7649C461.513 67.7649 458.687 69.6782 458.687 73.0367C458.687 81.0202 491.002 78.1434 491.002 101.612C491.002 113.904 482.529 124.441 461.825 124.441C452.412 124.441 442.689 122.204 437.509 118.694L438.605 101.454C443.784 104.964 453.034 107.999 461.507 107.999C467.782 107.999 470.446 106.086 470.446 102.569C470.446 94.427 438.131 97.2969 438.131 73.6699C438.131 61.2198 449.112 51.3162 467.464 51.3162C475.619 51.3162 483.307 52.5963 488.013 54.8261L485.031 71.4332L485.038 71.44Z" fill="#161A79"/>
</g>
<defs>
<clipPath id="clip0_1_2">
<rect width="491" height="140" fill="white"/>
</clipPath>
</defs>
</svg>
